<?xml version="1.0" standalone="no"?><!DOCTYPE svg PUBLIC "-//W3C//DTD SVG 1.1//EN" "http://www.w3.org/Graphics/SVG/1.1/DTD/svg11.dtd"><svg t="1554442635406" class="icon" style="" viewBox="0 0 1024 1024" version="1.1" xmlns="http://www.w3.org/2000/svg" p-id="3780" xmlns:xlink="http://www.w3.org/1999/xlink" width="200" height="200"><defs><style type="text/css"></style></defs><path d="M861.9 512.1c0 17.1-5.9 31.5-17.6 43.3L534.8 864.8c-12.4 11.7-26.8 17.6-43.3 17.6-16.2 0-30.4-5.9-42.8-17.6L413 829.2c-12.1-12-18.1-26.5-18.1-43.3 0-16.8 6-31.2 18.1-43.3l139.3-139.3H217.7c-16.5 0-29.9-5.9-40.2-17.8-10.3-11.9-15.5-26.2-15.5-43v-60.9c0-16.8 5.1-31.1 15.5-43 10.3-11.9 23.7-17.8 40.2-17.8h334.7L413.1 281C401 269.6 395 255.3 395 238.2c0-17.1 6-31.4 18.1-42.8l35.7-35.7c12-12 26.3-18.1 42.8-18.1 16.8 0 31.2 6 43.3 18.1l309.5 309.5c11.7 11.2 17.5 25.4 17.5 42.9z" p-id="3781" fill="#cdcdcd"></path></svg>